<mxfile host="app.diagrams.net" agent="Mozilla/5.0 (Windows NT 10.0; Win64; x64) AppleWebKit/537.36 (KHTML, like Gecko) Chrome/140.0.0.0 Safari/537.36" version="28.2.4">
  <diagram name="Página-1" id="-UDyG7sTWMzcDzoQgzSP">
    <mxGraphModel grid="1" page="1" gridSize="10" guides="1" tooltips="1" connect="1" arrows="1" fold="1" pageScale="1" pageWidth="827" pageHeight="1169" math="0" shadow="0">
      <root>
        <mxCell id="0" />
        <mxCell id="1" parent="0" />
        <mxCell id="_tyYR493tLjx07wX1UjR-2" value="&lt;h1 style=&quot;margin-top: 0px;&quot;&gt;Detección y sancion de infracciones en Parquimetros&lt;/h1&gt;" style="text;html=1;whiteSpace=wrap;overflow=hidden;rounded=0;" vertex="1" parent="1">
          <mxGeometry x="40" y="20" width="640" height="40" as="geometry" />
        </mxCell>
        <mxCell id="_tyYR493tLjx07wX1UjR-3" value="Deteccion de la infracción" style="whiteSpace=wrap;html=1;aspect=fixed;" vertex="1" parent="1">
          <mxGeometry x="115" y="350" width="80" height="80" as="geometry" />
        </mxCell>
        <mxCell id="_tyYR493tLjx07wX1UjR-4" value="&lt;div&gt;&lt;span style=&quot;background-color: transparent; color: light-dark(rgb(0, 0, 0), rgb(255, 255, 255));&quot;&gt;Inspección física&lt;/span&gt;&lt;/div&gt;&lt;div&gt;&lt;br&gt;&lt;div&gt;- Patrullaje regular de agentes de tránsito&amp;nbsp;&lt;/div&gt;&lt;div&gt;- Verificación visual de comprobantes de pago&amp;nbsp;&lt;/div&gt;&lt;div&gt;-&amp;nbsp;&lt;span style=&quot;background-color: transparent; color: light-dark(rgb(0, 0, 0), rgb(255, 255, 255));&quot;&gt;Validación manual de vigencia temporal&amp;nbsp;&lt;/span&gt;&lt;/div&gt;&lt;div&gt;- Correspondencia entre placas y comprobante&amp;nbsp;&lt;/div&gt;&lt;/div&gt;" style="rounded=0;whiteSpace=wrap;html=1;" vertex="1" parent="1">
          <mxGeometry x="20" y="510" width="120" height="240" as="geometry" />
        </mxCell>
        <mxCell id="_tyYR493tLjx07wX1UjR-6" value="&lt;div&gt;&lt;br&gt;&lt;/div&gt;Verificación Tecnológica&lt;div&gt;&lt;br&gt;&lt;/div&gt;&lt;div&gt;- Consulta de bases de datos de pagos realizados&lt;br&gt;- Validación de permisos de residentes activos&lt;br&gt;- Verificación de exenciones por discapacidad&lt;br&gt;- Cross-referencia con sistemas de aplicaciones móviles&lt;/div&gt;" style="rounded=0;whiteSpace=wrap;html=1;" vertex="1" parent="1">
          <mxGeometry x="180" y="510" width="120" height="240" as="geometry" />
        </mxCell>
        <mxCell id="_tyYR493tLjx07wX1UjR-7" value="" style="endArrow=classic;html=1;rounded=0;exitX=0.5;exitY=1;exitDx=0;exitDy=0;entryX=0.5;entryY=0;entryDx=0;entryDy=0;" edge="1" parent="1" source="_tyYR493tLjx07wX1UjR-3" target="_tyYR493tLjx07wX1UjR-4">
          <mxGeometry width="50" height="50" relative="1" as="geometry">
            <mxPoint x="140" y="505" as="sourcePoint" />
            <mxPoint x="420" y="565" as="targetPoint" />
          </mxGeometry>
        </mxCell>
        <mxCell id="_tyYR493tLjx07wX1UjR-8" value="" style="endArrow=classic;html=1;rounded=0;exitX=0.5;exitY=1;exitDx=0;exitDy=0;entryX=0.5;entryY=0;entryDx=0;entryDy=0;" edge="1" parent="1" source="_tyYR493tLjx07wX1UjR-3" target="_tyYR493tLjx07wX1UjR-6">
          <mxGeometry width="50" height="50" relative="1" as="geometry">
            <mxPoint x="180" y="505" as="sourcePoint" />
            <mxPoint x="420" y="565" as="targetPoint" />
          </mxGeometry>
        </mxCell>
        <mxCell id="_tyYR493tLjx07wX1UjR-9" value="Vehiculo estacionado en zona de parquimetros" style="shape=parallelogram;perimeter=parallelogramPerimeter;whiteSpace=wrap;html=1;fixedSize=1;" vertex="1" parent="1">
          <mxGeometry x="40" y="80" width="230" height="100" as="geometry" />
        </mxCell>
        <mxCell id="_tyYR493tLjx07wX1UjR-12" value="&lt;h1 style=&quot;margin-top: 0px;&quot;&gt;&lt;font style=&quot;font-size: 16px;&quot;&gt;Si&lt;/font&gt;&lt;/h1&gt;" style="text;html=1;whiteSpace=wrap;overflow=hidden;rounded=0;" vertex="1" parent="1">
          <mxGeometry x="240" y="210" width="20" height="40" as="geometry" />
        </mxCell>
        <mxCell id="_tyYR493tLjx07wX1UjR-15" value="No amerita infracción" style="rounded=0;whiteSpace=wrap;html=1;" vertex="1" parent="1">
          <mxGeometry x="280" y="220" width="120" height="60" as="geometry" />
        </mxCell>
        <mxCell id="_tyYR493tLjx07wX1UjR-16" value="&lt;h1 style=&quot;margin-top: 0px;&quot;&gt;&lt;font style=&quot;font-size: 16px;&quot;&gt;No&lt;/font&gt;&lt;/h1&gt;" style="text;html=1;whiteSpace=wrap;overflow=hidden;rounded=0;" vertex="1" parent="1">
          <mxGeometry x="100" y="290" width="30" height="40" as="geometry" />
        </mxCell>
        <mxCell id="_tyYR493tLjx07wX1UjR-19" value="¿Realizo el pago&lt;div&gt;correspondiente?&lt;/div&gt;" style="rounded=0;whiteSpace=wrap;html=1;" vertex="1" parent="1">
          <mxGeometry x="95" y="220" width="120" height="60" as="geometry" />
        </mxCell>
        <mxCell id="_tyYR493tLjx07wX1UjR-20" value="" style="endArrow=classic;html=1;rounded=0;exitX=0.5;exitY=1;exitDx=0;exitDy=0;entryX=0.5;entryY=0;entryDx=0;entryDy=0;" edge="1" parent="1" source="_tyYR493tLjx07wX1UjR-9" target="_tyYR493tLjx07wX1UjR-19">
          <mxGeometry width="50" height="50" relative="1" as="geometry">
            <mxPoint x="360" y="330" as="sourcePoint" />
            <mxPoint x="410" y="280" as="targetPoint" />
          </mxGeometry>
        </mxCell>
        <mxCell id="_tyYR493tLjx07wX1UjR-21" value="" style="endArrow=classic;html=1;rounded=0;exitX=1;exitY=0.5;exitDx=0;exitDy=0;entryX=0;entryY=0.5;entryDx=0;entryDy=0;" edge="1" parent="1" source="_tyYR493tLjx07wX1UjR-19" target="_tyYR493tLjx07wX1UjR-15">
          <mxGeometry width="50" height="50" relative="1" as="geometry">
            <mxPoint x="360" y="330" as="sourcePoint" />
            <mxPoint x="410" y="280" as="targetPoint" />
          </mxGeometry>
        </mxCell>
        <mxCell id="_tyYR493tLjx07wX1UjR-22" value="" style="endArrow=classic;html=1;rounded=0;entryX=0.5;entryY=0;entryDx=0;entryDy=0;exitX=0.5;exitY=1;exitDx=0;exitDy=0;" edge="1" parent="1" source="_tyYR493tLjx07wX1UjR-19" target="_tyYR493tLjx07wX1UjR-3">
          <mxGeometry width="50" height="50" relative="1" as="geometry">
            <mxPoint x="360" y="330" as="sourcePoint" />
            <mxPoint x="410" y="280" as="targetPoint" />
          </mxGeometry>
        </mxCell>
        <mxCell id="_tyYR493tLjx07wX1UjR-23" value="Documentación&lt;div&gt;Fotográfica del&lt;/div&gt;&lt;div&gt;vehículo y la&lt;/div&gt;&lt;div&gt;infracción&lt;/div&gt;" style="whiteSpace=wrap;html=1;aspect=fixed;" vertex="1" parent="1">
          <mxGeometry x="105" y="820" width="100" height="100" as="geometry" />
        </mxCell>
        <mxCell id="_tyYR493tLjx07wX1UjR-24" value="" style="endArrow=classic;html=1;rounded=0;exitX=0.5;exitY=1;exitDx=0;exitDy=0;entryX=0.5;entryY=0;entryDx=0;entryDy=0;" edge="1" parent="1" source="_tyYR493tLjx07wX1UjR-4" target="_tyYR493tLjx07wX1UjR-23">
          <mxGeometry width="50" height="50" relative="1" as="geometry">
            <mxPoint x="360" y="830" as="sourcePoint" />
            <mxPoint x="410" y="780" as="targetPoint" />
          </mxGeometry>
        </mxCell>
        <mxCell id="_tyYR493tLjx07wX1UjR-25" value="" style="endArrow=classic;html=1;rounded=0;exitX=0.5;exitY=1;exitDx=0;exitDy=0;entryX=0.5;entryY=0;entryDx=0;entryDy=0;" edge="1" parent="1" source="_tyYR493tLjx07wX1UjR-6" target="_tyYR493tLjx07wX1UjR-23">
          <mxGeometry width="50" height="50" relative="1" as="geometry">
            <mxPoint x="360" y="830" as="sourcePoint" />
            <mxPoint x="410" y="780" as="targetPoint" />
          </mxGeometry>
        </mxCell>
        <mxCell id="_tyYR493tLjx07wX1UjR-26" value="Generación de la boleta con código único" style="whiteSpace=wrap;html=1;aspect=fixed;" vertex="1" parent="1">
          <mxGeometry x="105" y="970" width="100" height="100" as="geometry" />
        </mxCell>
        <mxCell id="_tyYR493tLjx07wX1UjR-27" value="" style="endArrow=classic;html=1;rounded=0;exitX=0.5;exitY=1;exitDx=0;exitDy=0;entryX=0.5;entryY=0;entryDx=0;entryDy=0;" edge="1" parent="1" source="_tyYR493tLjx07wX1UjR-23" target="_tyYR493tLjx07wX1UjR-26">
          <mxGeometry width="50" height="50" relative="1" as="geometry">
            <mxPoint x="360" y="970" as="sourcePoint" />
            <mxPoint x="410" y="920" as="targetPoint" />
          </mxGeometry>
        </mxCell>
        <mxCell id="_tyYR493tLjx07wX1UjR-28" value="Colocación del dispositivo&lt;div&gt;inmovilizador&lt;/div&gt;&lt;div&gt;(&quot;Araña&quot; o Candado)&lt;/div&gt;" style="whiteSpace=wrap;html=1;aspect=fixed;" vertex="1" parent="1">
          <mxGeometry x="320" y="965" width="110" height="110" as="geometry" />
        </mxCell>
        <mxCell id="_tyYR493tLjx07wX1UjR-29" value="" style="endArrow=classic;html=1;rounded=0;exitX=1;exitY=0.5;exitDx=0;exitDy=0;entryX=0;entryY=0.5;entryDx=0;entryDy=0;" edge="1" parent="1" source="_tyYR493tLjx07wX1UjR-26" target="_tyYR493tLjx07wX1UjR-28">
          <mxGeometry width="50" height="50" relative="1" as="geometry">
            <mxPoint x="360" y="850" as="sourcePoint" />
            <mxPoint x="410" y="800" as="targetPoint" />
          </mxGeometry>
        </mxCell>
        <mxCell id="_tyYR493tLjx07wX1UjR-30" value="Emisión de línea de captura para pago de multa" style="whiteSpace=wrap;html=1;aspect=fixed;" vertex="1" parent="1">
          <mxGeometry x="530" y="967.5" width="105" height="105" as="geometry" />
        </mxCell>
        <mxCell id="_tyYR493tLjx07wX1UjR-31" value="" style="endArrow=classic;html=1;rounded=0;exitX=1;exitY=0.5;exitDx=0;exitDy=0;entryX=0;entryY=0.5;entryDx=0;entryDy=0;" edge="1" parent="1" source="_tyYR493tLjx07wX1UjR-28" target="_tyYR493tLjx07wX1UjR-30">
          <mxGeometry width="50" height="50" relative="1" as="geometry">
            <mxPoint x="360" y="970" as="sourcePoint" />
            <mxPoint x="410" y="920" as="targetPoint" />
          </mxGeometry>
        </mxCell>
        <mxCell id="_tyYR493tLjx07wX1UjR-32" value="Notificación al propietario mediante comprobante en parabrisas" style="whiteSpace=wrap;html=1;aspect=fixed;" vertex="1" parent="1">
          <mxGeometry x="690" y="965" width="110" height="110" as="geometry" />
        </mxCell>
        <mxCell id="_tyYR493tLjx07wX1UjR-33" value="" style="endArrow=classic;html=1;rounded=0;exitX=1;exitY=0.5;exitDx=0;exitDy=0;entryX=0;entryY=0.5;entryDx=0;entryDy=0;" edge="1" parent="1" source="_tyYR493tLjx07wX1UjR-30" target="_tyYR493tLjx07wX1UjR-32">
          <mxGeometry width="50" height="50" relative="1" as="geometry">
            <mxPoint x="360" y="850" as="sourcePoint" />
            <mxPoint x="410" y="800" as="targetPoint" />
          </mxGeometry>
        </mxCell>
        <mxCell id="_tyYR493tLjx07wX1UjR-35" value="Métodos de Pago Disponibles:&amp;nbsp;&lt;div&gt;&lt;br&gt;&lt;/div&gt;&lt;div&gt;- Portal electrónico de la Tesorería CDMX (www.finanzas.cdmx.gob.mx)&lt;br/&gt;- Aplicaciones móviles autorizadas con integración bancaria&lt;br/&gt;- Módulos presenciales de SAF en delegaciones&lt;br/&gt;- Red bancaria autorizada (Banamex, Bancomer)&lt;br/&gt;- Establecimientos comerciales (Walmart, Oxxo, farmacias)&amp;nbsp;&lt;/div&gt;" style="rounded=0;whiteSpace=wrap;html=1;" vertex="1" parent="1">
          <mxGeometry x="490" y="590" width="180" height="230" as="geometry" />
        </mxCell>
        <mxCell id="_tyYR493tLjx07wX1UjR-36" value="" style="endArrow=classic;html=1;rounded=0;entryX=0.5;entryY=1;entryDx=0;entryDy=0;exitX=0.5;exitY=0;exitDx=0;exitDy=0;" edge="1" parent="1" source="_tyYR493tLjx07wX1UjR-30" target="_tyYR493tLjx07wX1UjR-35">
          <mxGeometry width="50" height="50" relative="1" as="geometry">
            <mxPoint x="580" y="960" as="sourcePoint" />
            <mxPoint x="590" y="870" as="targetPoint" />
          </mxGeometry>
        </mxCell>
        <mxCell id="CPbbxp9HYs10ZsiT-efv-2" value="&lt;h1 style=&quot;margin-top: 0px;&quot;&gt;&lt;strong data-end=&quot;1664&quot; data-start=&quot;1627&quot;&gt;&lt;font style=&quot;font-size: 13px;&quot;&gt;Reglamento de Tránsito de la CDMX&lt;/font&gt;&lt;/strong&gt;&lt;/h1&gt;&lt;div&gt;&lt;strong data-end=&quot;1664&quot; data-start=&quot;1627&quot;&gt;&lt;font style=&quot;font-size: 13px;&quot;&gt;Art. 11, fracción IV → prohíbe estacionarse en sitios restringidos.&lt;/font&gt;&lt;/strong&gt;&lt;/div&gt;&lt;h1 style=&quot;margin-top: 0px;&quot;&gt;&lt;font style=&quot;color: light-dark(rgb(0, 0, 0), rgb(255, 255, 255)); background-color: transparent; font-weight: normal; font-size: 13px;&quot;&gt;Otras disposiciones definen causales de infracción (no pagar, comprobante no visible, usar permiso vencido, etc.).&lt;/font&gt;&lt;/h1&gt;&lt;h1 style=&quot;margin-top: 0px;&quot;&gt;&lt;font style=&quot;font-size: 13px;&quot;&gt;&lt;strong style=&quot;color: light-dark(rgb(0, 0, 0), rgb(255, 255, 255)); background-color: transparent;&quot; data-end=&quot;1901&quot; data-start=&quot;1868&quot;&gt;&lt;font style=&quot;&quot;&gt;Reglamento Interior de la SSC&lt;/font&gt;&lt;/strong&gt;&lt;/font&gt;&lt;/h1&gt;&lt;h1 style=&quot;margin-top: 0px;&quot;&gt;&lt;font style=&quot;font-size: 13px;&quot;&gt;&lt;span style=&quot;color: light-dark(rgb(0, 0, 0), rgb(255, 255, 255)); background-color: transparent; font-weight: normal;&quot;&gt;Art. 12, fracción XV Subsecretaría de Tránsito define zonas y aplica sanciones.&lt;/span&gt;&lt;/font&gt;&lt;/h1&gt;" style="text;html=1;whiteSpace=wrap;overflow=hidden;rounded=0;" vertex="1" parent="1">
          <mxGeometry x="470" y="220" width="310" height="300" as="geometry" />
        </mxCell>
      </root>
    </mxGraphModel>
  </diagram>
</mxfile>
